<svg xmlns="http://www.w3.org/2000/svg" viewBox="0 0 75.01 34.71"><defs><style>.cls-2{fill:#fff}</style></defs><g id="레이어_2" data-name="레이어 2"><g opacity=".5" id="레이어_1-2" data-name="레이어 1"><rect class="cls-2" y="4.48" width="3.36" height="12.32" rx="1.68" ry="1.68"/><rect class="cls-2" y="22.39" width="3.36" height="12.32" rx="1.68" ry="1.68"/><rect class="cls-2" x="8.96" y="-4.48" width="3.36" height="12.32" rx="1.68" ry="1.68" transform="rotate(90 10.64 1.68)"/><rect class="cls-2" x="17.91" y="4.59" width="3.36" height="12.32" rx="1.68" ry="1.68" transform="rotate(180 19.595 10.75)"/><rect class="cls-2" x="8.96" y="13.44" width="3.36" height="12.32" rx="1.68" ry="1.68" transform="rotate(90 10.635 19.595)"/><rect class="cls-2" x="35.83" y="4.48" width="3.36" height="12.32" rx="1.68" ry="1.68"/><rect class="cls-2" x="35.83" y="22.39" width="3.36" height="12.32" rx="1.68" ry="1.68"/><rect class="cls-2" x="53.74" y="4.48" width="3.36" height="12.32" rx="1.68" ry="1.68"/><rect class="cls-2" x="53.74" y="22.39" width="3.36" height="12.32" rx="1.68" ry="1.68"/><rect class="cls-2" x="71.65" y="4.48" width="3.36" height="12.32" rx="1.68" ry="1.68"/><rect class="cls-2" x="71.65" y="22.39" width="3.36" height="12.32" rx="1.68" ry="1.68"/><rect class="cls-2" x="44.78" y="-4.48" width="3.36" height="12.32" rx="1.68" ry="1.68" transform="rotate(90 46.46 1.68)"/><rect class="cls-2" x="62.7" y="-4.48" width="3.36" height="12.32" rx="1.68" ry="1.68" transform="rotate(90 64.38 1.68)"/></g></g></svg>