<svg xmlns="http://www.w3.org/2000/svg" viewBox="0 0 75.01 34.71"><defs><style>.cls-1{opacity:0.5;}.cls-2{fill:#fff;}</style></defs><title>ic_pm_non</title><g id="레이어_2" data-name="레이어 2"><g id="레이어_1-2" data-name="레이어 1"><g class="cls-1"><rect class="cls-2" y="4.48" width="3.36" height="12.32" rx="1.68" ry="1.68"/><rect class="cls-2" y="22.39" width="3.36" height="12.32" rx="1.68" ry="1.68"/><rect class="cls-2" x="8.96" y="-4.48" width="3.36" height="12.32" rx="1.68" ry="1.68" transform="translate(12.32 -8.96) rotate(90)"/><rect class="cls-2" x="17.91" y="4.59" width="3.36" height="12.32" rx="1.68" ry="1.68" transform="translate(39.19 21.5) rotate(180)"/><rect class="cls-2" x="8.96" y="13.44" width="3.36" height="12.32" rx="1.68" ry="1.68" transform="translate(30.23 8.96) rotate(90)"/><rect class="cls-2" x="35.83" y="4.48" width="3.36" height="12.32" rx="1.68" ry="1.68"/><rect class="cls-2" x="35.83" y="22.39" width="3.36" height="12.32" rx="1.68" ry="1.68"/><rect class="cls-2" x="53.74" y="4.48" width="3.36" height="12.32" rx="1.68" ry="1.68"/><rect class="cls-2" x="53.74" y="22.39" width="3.36" height="12.32" rx="1.68" ry="1.68"/><rect class="cls-2" x="71.65" y="4.48" width="3.36" height="12.32" rx="1.68" ry="1.68"/><rect class="cls-2" x="71.65" y="22.39" width="3.36" height="12.32" rx="1.68" ry="1.68"/><rect class="cls-2" x="44.78" y="-4.48" width="3.36" height="12.32" rx="1.68" ry="1.68" transform="translate(48.14 -44.78) rotate(90)"/><rect class="cls-2" x="62.7" y="-4.48" width="3.36" height="12.32" rx="1.68" ry="1.68" transform="translate(66.06 -62.7) rotate(90)"/></g></g></g></svg>