<svg id="레이어_1" data-name="레이어 1" xmlns="http://www.w3.org/2000/svg" viewBox="0 0 49.99 50"><defs><style>.cls-1{fill:#555}</style></defs><path class="cls-1" d="M971.14 546.34zm-17.73-15.94zm20.84 6.41h-3.15v-1.94a5.81 5.81 0 0 0 3.14-4.12.76.76 0 0 0 0-.15 1 1 0 0 0-1-1 1 1 0 0 0-1 .89 3.72 3.72 0 0 1-1.37 2.17 7.28 7.28 0 0 0-3.94-5.38l2-3.4a1.08 1.08 0 0 0 .14-.53 1 1 0 0 0-1.93-.54l-2.29 3.83a12.21 12.21 0 0 0-4.06 0l-2.29-3.83a1 1 0 0 0-1.93.54 1.08 1.08 0 0 0 .14.53l2 3.4a7.26 7.26 0 0 0-4 5.38 3.72 3.72 0 0 1-1.37-2.17 1 1 0 0 0-1-.89 1 1 0 0 0-1 1 .76.76 0 0 0 0 .15 5.8 5.8 0 0 0 3.14 4.13v1.93h-3.15a1 1 0 0 0 0 2.08h3.34a15.06 15.06 0 0 0 .77 3.06 5.81 5.81 0 0 0-3.06 4.08.76.76 0 0 0 0 .15 1 1 0 0 0 2.07.15 3.67 3.67 0 0 1 1.92-2.51 7.77 7.77 0 0 0 12.85 0 3.67 3.67 0 0 1 1.92 2.51 1 1 0 0 0 2.07-.15.76.76 0 0 0 0-.15 5.81 5.81 0 0 0-3.06-4.08 15.06 15.06 0 0 0 .77-3.06h3.34a1 1 0 1 0 0-2.08zm-12.5 8.26a5 5 0 0 1-3.6-2.33 13.14 13.14 0 0 1-1.6-7 13.51 13.51 0 0 1 .15-2.09h5v11.39zm-4.49-13.47a5.35 5.35 0 0 1 .94-1.48 7.22 7.22 0 0 1 9.19 0 5.13 5.13 0 0 1 .94 1.48zm10.18 11.14a5 5 0 0 1-3.6 2.33v-11.39h5.06a15 15 0 0 1 .14 2.09 13 13 0 0 1-1.6 6.97z" transform="translate(-934.01 -515.07)"/><path class="cls-1" d="M977.79 521.28A21.21 21.21 0 0 0 945 547.84l-9.83 9.83a4 4 0 0 0 0 5.71l.5.5a4 4 0 0 0 5.71 0l9.83-9.83a21.21 21.21 0 0 0 26.56-32.77zM946.8 554l-7.94 7.94a1.17 1.17 0 0 1-1.66 0h-.05a1.17 1.17 0 0 1 0-1.66l7.94-7.94a1.19 1.19 0 0 1 1.66 0v.05a1.19 1.19 0 0 1 .05 1.61zm28.82-4.89a18.14 18.14 0 1 1 0-25.65 18 18 0 0 1 0 25.64z" transform="translate(-934.01 -515.07)"/></svg>