<svg id="레이어_1" data-name="레이어 1" xmlns="http://www.w3.org/2000/svg" viewBox="0 0 49.22 50"><defs><style>.cls-1{fill:#555;}</style></defs><title>ic_key</title><path class="cls-1" d="M1266.71,599.07a16.92,16.92,0,0,0-16.9,16.89,16.71,16.71,0,0,0,1.1,6l-16.16,16.16a1.23,1.23,0,0,0-.36.87v8.84a1.24,1.24,0,0,0,1.23,1.24h7.29a1.24,1.24,0,0,0,.87-.36l2.45-2.46a1.23,1.23,0,0,0,.36-.87v-3h3a1.23,1.23,0,0,0,1.23-1.23v-1.21h1.2a1.24,1.24,0,0,0,1.24-1.23v-2.65h2.65a1.24,1.24,0,0,0,.87-.36l3.91-3.92a16.9,16.9,0,1,0,6-32.7Zm0,31.33a14.38,14.38,0,0,1-5.79-1.21,1.23,1.23,0,0,0-1.36.25h0l-4.13,4.13H1252a1.23,1.23,0,0,0-1.23,1.23v2.65h-1.2a1.25,1.25,0,0,0-1.24,1.24v1.2h-3a1.23,1.23,0,0,0-1.23,1.24v3.73l-1.73,1.73h-5.55v-1.74l15.05-15.05a1.11,1.11,0,0,0-1.56-1.57l-13.49,13.49V639.5l16.38-16.38h0a1.24,1.24,0,0,0,.25-1.35,14.22,14.22,0,0,1-1.21-5.8,14.44,14.44,0,1,1,14.43,14.44Z" transform="translate(-1234.39 -599.07)"/><path class="cls-1" d="M1271.86,606.21a4.61,4.61,0,1,0,4.61,4.61A4.62,4.62,0,0,0,1271.86,606.21Zm0,6.76a2.15,2.15,0,1,1,2.15-2.15A2.15,2.15,0,0,1,1271.86,613Z" transform="translate(-1234.39 -599.07)"/></svg>