<svg id="레이어_1" data-name="레이어 1" xmlns="http://www.w3.org/2000/svg" viewBox="0 0 54.7 50"><defs><style>.cls-1{fill:#555;}</style></defs><title>ic_broken</title><path class="cls-1" d="M960,550.2a2.81,2.81,0,1,0,0,5.62,2.81,2.81,0,0,0,0-5.62Z" transform="translate(-932.65 -515.07)"/><path class="cls-1" d="M986,560.16a9.61,9.61,0,0,0,0-9.71L968.43,520a9.7,9.7,0,0,0-16.84,0L934,550.47a9.74,9.74,0,0,0,8.43,14.6h35.17A9.7,9.7,0,0,0,986,560.16Zm-3.83-2.2a5.3,5.3,0,0,1-4.64,2.69H942.38a5.26,5.26,0,0,1-4.59-2.63,5.37,5.37,0,0,1,0-5.37l17.63-30.51a5.29,5.29,0,0,1,9.2,0l17.62,30.51A5.26,5.26,0,0,1,982.19,558Z" transform="translate(-932.65 -515.07)"/><path class="cls-1" d="M959.3,530.47a3.06,3.06,0,0,0-2.17,3.07c.07.89.13,1.79.19,2.67.19,3.39.39,6.71.58,10.09a2,2,0,0,0,2.1,2,2.1,2.1,0,0,0,2.1-2,20,20,0,0,1,.07-2c.12-2.17.26-4.34.38-6.51.07-1.41.19-2.81.26-4.22a3.5,3.5,0,0,0-.26-1.41A2.81,2.81,0,0,0,959.3,530.47Z" transform="translate(-932.65 -515.07)"/></svg>